<svg xmlns="http://www.w3.org/2000/svg" width="13.353" height="14.307" viewBox="0 0 13.353 14.307">
  <g id="Group_190" data-name="Group 190" transform="translate(-44 -261)">
    <g id="list" transform="translate(44 261)">
      <g id="Group_179" data-name="Group 179" transform="translate(4.915 6.739)">
        <g id="Group_178" data-name="Group 178">
          <path id="Path_79" data-name="Path 79" d="M137.472,161.8h-7.605a.417.417,0,1,0,0,.833h7.605a.417.417,0,1,0,0-.833Z" transform="translate(-129.45 -161.8)" fill="#ee542d"/>
        </g>
      </g>
      <g id="Group_181" data-name="Group 181" transform="translate(0 5.219)">
        <g id="Group_180" data-name="Group 180">
          <path id="Path_80" data-name="Path 80" d="M13.387,125.3a1.937,1.937,0,1,0,1.937,1.937A1.936,1.936,0,0,0,13.387,125.3Zm0,3.04a1.1,1.1,0,1,1,1.1-1.1A1.1,1.1,0,0,1,13.387,128.34Z" transform="translate(-11.45 -125.3)" fill="#ee542d"/>
        </g>
      </g>
      <g id="Group_183" data-name="Group 183" transform="translate(4.915 1.533)">
        <g id="Group_182" data-name="Group 182">
          <path id="Path_81" data-name="Path 81" d="M137.472,36.8h-7.605a.416.416,0,1,0,0,.833h7.605a.416.416,0,1,0,0-.833Z" transform="translate(-129.45 -36.8)" fill="#ee542d"/>
        </g>
      </g>
      <g id="Group_185" data-name="Group 185" transform="translate(0)">
        <g id="Group_184" data-name="Group 184">
          <path id="Path_82" data-name="Path 82" d="M13.387,0a1.937,1.937,0,1,0,1.937,1.937A1.936,1.936,0,0,0,13.387,0Zm0,3.045a1.1,1.1,0,1,1,1.1-1.1A1.1,1.1,0,0,1,13.387,3.045Z" transform="translate(-11.45)" fill="#ee542d"/>
        </g>
      </g>
      <g id="Group_187" data-name="Group 187" transform="translate(4.915 11.945)">
        <g id="Group_186" data-name="Group 186">
          <path id="Path_83" data-name="Path 83" d="M137.472,286.8h-7.605a.417.417,0,1,0,0,.833h7.605a.417.417,0,1,0,0-.833Z" transform="translate(-129.45 -286.8)" fill="#ee542d"/>
        </g>
      </g>
      <g id="Group_189" data-name="Group 189" transform="translate(0 10.433)">
        <g id="Group_188" data-name="Group 188">
          <path id="Path_84" data-name="Path 84" d="M13.387,250.5a1.937,1.937,0,1,0,1.937,1.937A1.936,1.936,0,0,0,13.387,250.5Zm0,3.045a1.1,1.1,0,1,1,1.1-1.1A1.1,1.1,0,0,1,13.387,253.545Z" transform="translate(-11.45 -250.5)" fill="#ee542d"/>
        </g>
      </g>
    </g>
  </g>
</svg>
