<svg xmlns="http://www.w3.org/2000/svg" width="17.6" height="11" viewBox="0 0 17.6 11">
  <g id="contact" transform="translate(0 -96)">
    <g id="Group_230" data-name="Group 230" transform="translate(2.933 97.467)">
      <g id="Group_229" data-name="Group 229" transform="translate(0 0)">
        <path id="Path_112" data-name="Path 112" d="M87.167,138.667A1.833,1.833,0,1,0,89,140.5,1.836,1.836,0,0,0,87.167,138.667Zm0,2.933a1.1,1.1,0,1,1,1.1-1.1A1.1,1.1,0,0,1,87.167,141.6Z" transform="translate(-85.334 -138.667)" fill="#ee542d"/>
      </g>
    </g>
    <g id="Group_232" data-name="Group 232" transform="translate(1.467 100.4)">
      <g id="Group_231" data-name="Group 231">
        <path id="Path_113" data-name="Path 113" d="M45.967,224a3.3,3.3,0,0,0-3.3,3.3.367.367,0,0,0,.367.367H48.9a.367.367,0,0,0,.367-.367A3.3,3.3,0,0,0,45.967,224Zm-2.54,2.933a2.567,2.567,0,0,1,5.081,0Z" transform="translate(-42.667 -224)" fill="#ee542d"/>
      </g>
    </g>
    <g id="Group_234" data-name="Group 234" transform="translate(9.533 98.2)">
      <g id="Group_233" data-name="Group 233">
        <path id="Path_114" data-name="Path 114" d="M283.566,160H277.7a.367.367,0,1,0,0,.733h5.867a.367.367,0,1,0,0-.733Z" transform="translate(-277.333 -160)" fill="#ee542d"/>
      </g>
    </g>
    <g id="Group_236" data-name="Group 236" transform="translate(9.533 100.4)">
      <g id="Group_235" data-name="Group 235">
        <path id="Path_115" data-name="Path 115" d="M281.366,224H277.7a.367.367,0,1,0,0,.733h3.667a.367.367,0,1,0,0-.733Z" transform="translate(-277.333 -224)" fill="#ee542d"/>
      </g>
    </g>
    <g id="Group_238" data-name="Group 238" transform="translate(9.533 102.6)">
      <g id="Group_237" data-name="Group 237">
        <path id="Path_116" data-name="Path 116" d="M283.566,288H277.7a.367.367,0,1,0,0,.733h5.867a.367.367,0,1,0,0-.733Z" transform="translate(-277.333 -288)" fill="#ee542d"/>
      </g>
    </g>
    <g id="Group_240" data-name="Group 240" transform="translate(0 96)">
      <g id="Group_239" data-name="Group 239">
        <path id="Path_117" data-name="Path 117" d="M17.233,96H.367A.367.367,0,0,0,0,96.367v10.267A.367.367,0,0,0,.367,107h2.2a.367.367,0,0,0,.367-.367.353.353,0,0,1,.061-.179.365.365,0,0,0,0-.375.357.357,0,0,1-.061-.18.367.367,0,1,1,.733,0,.353.353,0,0,1-.061.179.365.365,0,0,0,0,.375.357.357,0,0,1,.061.18.367.367,0,0,0,.367.367h2.2a.367.367,0,0,0,.367-.367.353.353,0,0,1,.061-.179.365.365,0,0,0,0-.375.357.357,0,0,1-.061-.18.367.367,0,1,1,.733,0,.353.353,0,0,1-.061.179.365.365,0,0,0,0,.375.357.357,0,0,1,.061.18A.367.367,0,0,0,7.7,107H9.9a.367.367,0,0,0,.367-.367.353.353,0,0,1,.061-.179.365.365,0,0,0,0-.375.357.357,0,0,1-.061-.18.367.367,0,1,1,.733,0,.353.353,0,0,1-.061.179.365.365,0,0,0,0,.375.357.357,0,0,1,.061.18.367.367,0,0,0,.367.367h2.2a.367.367,0,0,0,.367-.367.353.353,0,0,1,.061-.179.365.365,0,0,0,0-.375.357.357,0,0,1-.061-.18.367.367,0,1,1,.733,0,.353.353,0,0,1-.061.179.365.365,0,0,0,0,.375.357.357,0,0,1,.061.18.367.367,0,0,0,.367.367h2.2a.367.367,0,0,0,.367-.367V96.367A.367.367,0,0,0,17.233,96Zm-.367,10.267H15.329a.994.994,0,0,0,.071-.367,1.1,1.1,0,1,0-2.2,0,.994.994,0,0,0,.071.367H11.662a.993.993,0,0,0,.071-.367,1.1,1.1,0,1,0-2.2,0,.994.994,0,0,0,.071.367H8a.993.993,0,0,0,.071-.367,1.1,1.1,0,1,0-2.2,0,.994.994,0,0,0,.071.367H4.329A.994.994,0,0,0,4.4,105.9a1.1,1.1,0,1,0-2.2,0,.994.994,0,0,0,.071.367H.733V96.733H16.867v9.533Z" transform="translate(0 -96)" fill="#ee542d"/>
      </g>
    </g>
  </g>
</svg>
