<svg xmlns="http://www.w3.org/2000/svg" width="17.352" height="12.03" viewBox="0 0 17.352 12.03">
  <g id="truck" transform="translate(0 -78.521)">
    <g id="Group_157" data-name="Group 157" transform="translate(10.918 86.176)">
      <g id="Group_156" data-name="Group 156">
        <path id="Path_69" data-name="Path 69" d="M324.338,304.4a2.187,2.187,0,1,0,2.187,2.187A2.19,2.19,0,0,0,324.338,304.4Zm0,3.281a1.094,1.094,0,1,1,1.094-1.094A1.095,1.095,0,0,1,324.338,307.684Z" transform="translate(-322.151 -304.403)" fill="#d35026"/>
      </g>
    </g>
    <g id="Group_159" data-name="Group 159" transform="translate(3.445 86.176)">
      <g id="Group_158" data-name="Group 158">
        <path id="Path_70" data-name="Path 70" d="M103.834,304.4a2.187,2.187,0,1,0,2.187,2.187A2.19,2.19,0,0,0,103.834,304.4Zm0,3.281a1.094,1.094,0,1,1,1.094-1.094A1.095,1.095,0,0,1,103.834,307.684Z" transform="translate(-101.647 -304.403)" fill="#d35026"/>
      </g>
    </g>
    <g id="Group_161" data-name="Group 161" transform="translate(11.21 79.615)">
      <g id="Group_160" data-name="Group 160">
        <path id="Path_71" data-name="Path 71" d="M334.125,111.091a.547.547,0,0,0-.489-.3h-2.88v1.094H333.3l1.489,2.961.977-.491Z" transform="translate(-330.756 -110.79)" fill="#d35026"/>
      </g>
    </g>
    <g id="Group_163" data-name="Group 163" transform="translate(7.327 87.835)">
      <g id="Group_162" data-name="Group 162">
        <rect id="Rectangle_149" data-name="Rectangle 149" width="4.137" height="1.094" fill="#d35026"/>
      </g>
    </g>
    <g id="Group_165" data-name="Group 165" transform="translate(1.549 87.835)">
      <g id="Group_164" data-name="Group 164">
        <path id="Path_72" data-name="Path 72" d="M48.157,353.345h-1.9a.547.547,0,0,0,0,1.094h1.9a.547.547,0,1,0,0-1.094Z" transform="translate(-45.715 -353.345)" fill="#d35026"/>
      </g>
    </g>
    <g id="Group_167" data-name="Group 167" transform="translate(1.549 78.521)">
      <g id="Group_166" data-name="Group 166">
        <path id="Path_73" data-name="Path 73" d="M61.4,84.492l-1.076-1.385A.546.546,0,0,0,59.9,82.9H55.922V79.068a.547.547,0,0,0-.547-.547H46.262a.547.547,0,1,0,0,1.094h8.567v3.828a.547.547,0,0,0,.547.547h4.253l.8,1.026v2.82H58.911a.547.547,0,1,0,0,1.094h2.06a.547.547,0,0,0,.547-.547V84.827A.548.548,0,0,0,61.4,84.492Z" transform="translate(-45.715 -78.521)" fill="#d35026"/>
      </g>
    </g>
    <g id="Group_169" data-name="Group 169" transform="translate(0.893 85.064)">
      <g id="Group_168" data-name="Group 168">
        <path id="Path_74" data-name="Path 74" d="M29.415,271.6H26.9a.547.547,0,1,0,0,1.094h2.515a.547.547,0,0,0,0-1.094Z" transform="translate(-26.353 -271.597)" fill="#d35026"/>
      </g>
    </g>
    <g id="Group_171" data-name="Group 171" transform="translate(0 82.914)">
      <g id="Group_170" data-name="Group 170">
        <path id="Path_75" data-name="Path 75" d="M5.213,208.134H.547a.547.547,0,0,0,0,1.094H5.213a.547.547,0,0,0,0-1.094Z" transform="translate(0 -208.134)" fill="#d35026"/>
      </g>
    </g>
    <g id="Group_173" data-name="Group 173" transform="translate(0.893 80.763)">
      <g id="Group_172" data-name="Group 172">
        <path id="Path_76" data-name="Path 76" d="M31.566,144.672H26.9a.547.547,0,1,0,0,1.094h4.666a.547.547,0,1,0,0-1.094Z" transform="translate(-26.353 -144.672)" fill="#d35026"/>
      </g>
    </g>
  </g>
</svg>
