<svg xmlns="http://www.w3.org/2000/svg" width="19.167" height="17.57" viewBox="0 0 19.167 17.57">
  <g id="image" transform="translate(0 -0.492)">
    <path id="Path_129" data-name="Path 129" d="M4.991,156.815a2.99,2.99,0,0,1-2.829-2.037l-.028-.092A2.915,2.915,0,0,1,2,153.82v-5.445L.059,154.842a1.814,1.814,0,0,0,1.271,2.2L13.68,160.35a1.832,1.832,0,0,0,.46.059,1.781,1.781,0,0,0,1.726-1.306l.719-2.288Zm0,0" transform="translate(0 -142.347)" fill="#ee542d"/>
    <path id="Path_130" data-name="Path 130" d="M150.918,67.687a1.6,1.6,0,1,0-1.6-1.6A1.6,1.6,0,0,0,150.918,67.687Zm0,0" transform="translate(-143.73 -61.604)" fill="#ee542d"/>
    <path id="Path_131" data-name="Path 131" d="M99.3.492H87.317a2,2,0,0,0-2,2v8.785a2,2,0,0,0,2,2H99.3a2,2,0,0,0,2-2V2.489a2,2,0,0,0-2-2Zm-11.98,1.6H99.3a.4.4,0,0,1,.4.4v5.67L97.173,5.215A1.431,1.431,0,0,0,96.1,4.723a1.4,1.4,0,0,0-1.067.5l-2.966,3.56L91.1,7.824a1.4,1.4,0,0,0-1.981,0l-2.2,2.2V2.489A.4.4,0,0,1,87.317,2.09Zm0,0" transform="translate(-82.126)" fill="#ee542d"/>
  </g>
</svg>
