<svg xmlns="http://www.w3.org/2000/svg" width="10.765" height="11.53" viewBox="0 0 10.765 11.53">
  <g id="location" transform="translate(-16.996)">
    <path id="Path_107" data-name="Path 107" d="M27.352,368.506H24.388v-.718h2.729l-.432-1.316H24.625a13.573,13.573,0,0,0-1.7,1.833l-.546.748-.546-.748a13.638,13.638,0,0,0-1.7-1.833H18.072l-.432,1.316h2.729v.718H17.4L17,369.75H27.761Z" transform="translate(0 -358.22)" fill="#ee542d"/>
    <path id="Path_108" data-name="Path 108" d="M84.677,9.688c1.629-2.232,3.947-3.094,3.947-5.741a3.947,3.947,0,0,0-7.894,0C80.73,6.594,83.049,7.457,84.677,9.688Zm0-6.669A1.076,1.076,0,1,1,83.6,4.1,1.078,1.078,0,0,1,84.677,3.019Z" transform="translate(-62.299)" fill="#ee542d"/>
  </g>
</svg>
