<svg id="more" xmlns="http://www.w3.org/2000/svg" width="29.094" height="8.313" viewBox="0 0 29.094 8.313">
  <g id="Group_137" data-name="Group 137" transform="translate(0 0)">
    <g id="Group_136" data-name="Group 136">
      <path id="Path_3" data-name="Path 3" d="M4.156,170.667a4.156,4.156,0,1,0,4.156,4.156A4.156,4.156,0,0,0,4.156,170.667Zm0,6.234a2.078,2.078,0,1,1,2.078-2.078A2.078,2.078,0,0,1,4.156,176.9Z" transform="translate(0 -170.667)" fill="#707070"/>
    </g>
  </g>
  <g id="Group_139" data-name="Group 139" transform="translate(10.391 0)">
    <g id="Group_138" data-name="Group 138">
      <path id="Path_4" data-name="Path 4" d="M174.822,170.667a4.156,4.156,0,1,0,4.156,4.156A4.156,4.156,0,0,0,174.822,170.667Zm0,6.234a2.078,2.078,0,1,1,2.078-2.078A2.078,2.078,0,0,1,174.822,176.9Z" transform="translate(-170.666 -170.667)" fill="#707070"/>
    </g>
  </g>
  <g id="Group_141" data-name="Group 141" transform="translate(20.781 0)">
    <g id="Group_140" data-name="Group 140">
      <path id="Path_5" data-name="Path 5" d="M345.489,170.667a4.156,4.156,0,1,0,4.156,4.156A4.156,4.156,0,0,0,345.489,170.667Zm0,6.234a2.078,2.078,0,1,1,2.078-2.078A2.078,2.078,0,0,1,345.489,176.9Z" transform="translate(-341.333 -170.667)" fill="#707070"/>
    </g>
  </g>
</svg>
