<svg xmlns="http://www.w3.org/2000/svg" width="17.145" height="21.668" viewBox="0 0 17.145 21.668">
  <path id="notification" d="M70.225,17.243A3.367,3.367,0,0,1,69.2,15.85a16.119,16.119,0,0,1-1.066-6.37c0-.008,0-.016,0-.024A6.148,6.148,0,0,0,64.516,3.88V2.414A2.414,2.414,0,0,0,62.106,0h-.2A2.414,2.414,0,0,0,59.5,2.414V3.88a6.148,6.148,0,0,0-3.619,5.6,16.12,16.12,0,0,1-1.066,6.37,3.366,3.366,0,0,1-1.023,1.393.617.617,0,0,0-.339.7.646.646,0,0,0,.637.5h4.653a3.268,3.268,0,0,0,6.536,0h4.653a.646.646,0,0,0,.637-.5A.617.617,0,0,0,70.225,17.243ZM60.767,2.414a1.142,1.142,0,0,1,1.14-1.142h.2a1.142,1.142,0,0,1,1.14,1.142V3.468a6.148,6.148,0,0,0-2.48,0V2.414ZM62.007,20.4a2,2,0,0,1-2-1.955h4A2,2,0,0,1,62.007,20.4Zm2.556-3.226h-9.03a6.653,6.653,0,0,0,.333-.584,16.072,16.072,0,0,0,1.282-7.1,4.859,4.859,0,1,1,9.718,0c0,.008,0,.016,0,.023a16.039,16.039,0,0,0,1.282,7.079,6.659,6.659,0,0,0,.333.584Z" transform="translate(-53.434)" fill="#707070"/>
</svg>
