<svg xmlns="http://www.w3.org/2000/svg" width="21" height="14.875" viewBox="0 0 21 14.875">
  <g id="new" transform="translate(0 -74.667)">
    <g id="Group_144" data-name="Group 144" transform="translate(4.375 79.917)">
      <g id="Group_143" data-name="Group 143" transform="translate(0 0)">
        <path id="Path_64" data-name="Path 64" d="M109.728,202.665a.438.438,0,0,0-.438.438v2.187l-1.837-2.45a.438.438,0,0,0-.787.263v3.5a.438.438,0,1,0,.875,0v-2.187l1.837,2.45a.438.438,0,0,0,.35.175.42.42,0,0,0,.138-.023.438.438,0,0,0,.3-.415v-3.5A.438.438,0,0,0,109.728,202.665Z" transform="translate(-106.666 -202.665)" fill="#a8841d"/>
      </g>
    </g>
    <g id="Group_146" data-name="Group 146" transform="translate(8.75 79.917)">
      <g id="Group_145" data-name="Group 145" transform="translate(0 0)">
        <path id="Path_65" data-name="Path 65" d="M215.521,206.166h-1.312v-2.625h1.313a.438.438,0,0,0,0-.875h-1.75a.438.438,0,0,0-.437.438v3.5a.438.438,0,0,0,.438.438h1.75a.437.437,0,1,0,0-.875Z" transform="translate(-213.333 -202.666)" fill="#a8841d"/>
      </g>
    </g>
    <g id="Group_148" data-name="Group 148" transform="translate(8.75 81.667)">
      <g id="Group_147" data-name="Group 147" transform="translate(0 0)">
        <path id="Path_66" data-name="Path 66" d="M215.521,245.333h-1.75a.438.438,0,0,0,0,.875h1.75a.438.438,0,1,0,0-.875Z" transform="translate(-213.333 -245.333)" fill="#a8841d"/>
      </g>
    </g>
    <g id="Group_150" data-name="Group 150" transform="translate(12.25 79.917)">
      <g id="Group_149" data-name="Group 149" transform="translate(0 0)">
        <path id="Path_67" data-name="Path 67" d="M302.717,202.671a.435.435,0,0,0-.53.318l-.51,2.042-.4-1.2a.456.456,0,0,0-.83,0l-.4,1.2-.51-2.042a.437.437,0,0,0-.849.212l.875,3.5a.438.438,0,0,0,.408.331.415.415,0,0,0,.432-.3l.459-1.38.459,1.38a.438.438,0,0,0,.416.3h.016a.437.437,0,0,0,.408-.331l.875-3.5A.437.437,0,0,0,302.717,202.671Z" transform="translate(-298.675 -202.658)" fill="#a8841d"/>
      </g>
    </g>
    <g id="Group_152" data-name="Group 152" transform="translate(0 74.667)">
      <g id="Group_151" data-name="Group 151" transform="translate(0 0)">
        <path id="Path_68" data-name="Path 68" d="M17.937,74.667H3.063A3.066,3.066,0,0,0,0,77.729v8.75a3.066,3.066,0,0,0,3.063,3.063H17.937A3.066,3.066,0,0,0,21,86.479v-8.75A3.066,3.066,0,0,0,17.937,74.667Zm2.188,11.812a2.19,2.19,0,0,1-2.187,2.187H3.063A2.19,2.19,0,0,1,.875,86.479v-8.75a2.19,2.19,0,0,1,2.187-2.187H17.937a2.19,2.19,0,0,1,2.187,2.187Z" transform="translate(0 -74.667)" fill="#a8841d"/>
      </g>
    </g>
  </g>
</svg>
