<svg xmlns="http://www.w3.org/2000/svg" width="16.957" height="11.923" viewBox="0 0 16.957 11.923">
  <g id="bike" transform="translate(117 -55.682)">
    <g id="Group_192" data-name="Group 192" transform="translate(-117 55.682)">
      <path id="Path_89" data-name="Path 89" d="M13.976,81.961a2.964,2.964,0,0,0-1.224.263l-.456-.68a4.4,4.4,0,0,1,2.177-.576.5.5,0,0,0,.5-.5v-.994A3.481,3.481,0,0,0,11.492,76H10.5a.5.5,0,1,0,0,.994H11v.994H9.472a.5.5,0,0,0-.413.221l-.515.772H4.406l-.249-.374A1.388,1.388,0,0,0,3,77.987H.5a.5.5,0,0,0-.5.5,2.488,2.488,0,0,0,2.208,2.469l.674,1.011a2.981,2.981,0,1,0,2.909,3.972H8.739A1.4,1.4,0,0,0,10.1,84.817l.07-.352a4.318,4.318,0,0,1,1.319-2.335l.435.649a2.979,2.979,0,1,0,2.049-.818ZM7.881,79.974l-.662.994H5.73l-.662-.994Zm-4.9,6.955a1.987,1.987,0,0,1,0-3.974,2.017,2.017,0,0,1,.266.018,1.489,1.489,0,0,0,.231,2.959H4.7A2,2,0,0,1,2.981,86.929Zm.5-1.987a.5.5,0,0,1,0-.994H6.184l.5.994ZM9.2,84.271l-.07.352a.4.4,0,0,1-.39.319h-.7a.4.4,0,0,1-.355-.22l-.746-1.493a.5.5,0,0,0-.444-.275H4.95a.4.4,0,0,1-.331-.177L2.9,80.2a.5.5,0,0,0-.413-.221,1.493,1.493,0,0,1-1.405-.994H3a.4.4,0,0,1,.331.177l.4.6v0L5.051,81.74a.5.5,0,0,0,.413.221h2.02A.5.5,0,0,0,7.9,81.74l1.323-1.984v0l.516-.777h1.754a.494.494,0,0,0,.5-.493v-1.44a2.488,2.488,0,0,1,1.987,2.434V80A5.377,5.377,0,0,0,9.2,84.271Zm4.777,2.659a1.986,1.986,0,0,1-1.483-3.307l1.071,1.6a.5.5,0,1,0,.825-.553l-1.071-1.6a1.987,1.987,0,1,1,.659,3.861Z" transform="translate(0 -76)" fill="#ee542d"/>
    </g>
  </g>
</svg>
