<svg xmlns="http://www.w3.org/2000/svg" width="15.941" height="15.941" viewBox="0 0 15.941 15.941">
  <g id="box" transform="translate(0 0)">
    <path id="Path_85" data-name="Path 85" d="M15.938,3.932a.5.5,0,0,0-.284-.4L8.181.047a.5.5,0,0,0-.421,0L.287,3.534a.5.5,0,0,0-.284.4s0,.051,0,.054v8.469a.5.5,0,0,0,.313.463l7.472,2.989a.5.5,0,0,0,.37,0l7.472-2.989a.5.5,0,0,0,.313-.463V3.985S15.938,3.935,15.938,3.932ZM7.97,1.048l6.219,2.9-2.395.958L5.459,2.22ZM4.244,2.787l6.238,2.646-2.511,1L1.751,3.95ZM1,4.721l6.476,2.59v7.4L1,12.117Zm7.472,9.986v-7.4l6.476-2.59v7.4Z" fill="#ee542d"/>
  </g>
</svg>
