<svg id="supermarket" xmlns="http://www.w3.org/2000/svg" width="15.941" height="14.011" viewBox="0 0 15.941 14.011">
  <path id="Path_86" data-name="Path 86" d="M5.136,9.341h8.47A.467.467,0,0,0,14.055,9l1.868-6.538a.467.467,0,0,0-.449-.6H4.059L3.725.366A.467.467,0,0,0,3.269,0H.467a.467.467,0,0,0,0,.934H2.895L4.581,8.522a1.4,1.4,0,0,0,.557,2.687h8.469a.467.467,0,0,0,0-.934H5.137a.467.467,0,0,1,0-.934ZM14.855,2.8l-1.6,5.6H5.512L4.266,2.8Zm0,0" fill="#ee542d"/>
  <path id="Path_87" data-name="Path 87" d="M150,361.4a1.4,1.4,0,1,0,1.4-1.4A1.4,1.4,0,0,0,150,361.4Zm1.4-.467a.467.467,0,1,1-.467.467A.468.468,0,0,1,151.4,360.934Zm0,0" transform="translate(-145.33 -348.792)" fill="#ee542d"/>
  <path id="Path_88" data-name="Path 88" d="M362,361.4a1.4,1.4,0,1,0,1.4-1.4A1.4,1.4,0,0,0,362,361.4Zm1.4-.467a.467.467,0,1,1-.467.467A.468.468,0,0,1,363.4,360.934Zm0,0" transform="translate(-350.729 -348.792)" fill="#ee542d"/>
</svg>
