<svg id="picture" xmlns="http://www.w3.org/2000/svg" width="23.107" height="19.137" viewBox="0 0 23.107 19.137">
  <g id="Group_224" data-name="Group 224">
    <g id="Group_223" data-name="Group 223" transform="translate(0 0)">
      <path id="Path_109" data-name="Path 109" d="M21.329,43.979H1.777A1.759,1.759,0,0,0,0,45.756V61.339a1.759,1.759,0,0,0,1.777,1.777H21.329a1.759,1.759,0,0,0,1.777-1.777V45.756A1.759,1.759,0,0,0,21.329,43.979Zm0,17.36H1.777L1.764,45.758H21.329V61.339Z" transform="translate(0 -43.979)" fill="#ee542d"/>
    </g>
  </g>
  <g id="Group_226" data-name="Group 226" transform="translate(0.362 5.332)">
    <g id="Group_225" data-name="Group 225">
      <path id="Path_110" data-name="Path 110" d="M16.5,162.453a.889.889,0,0,0-1.21-.149l-7.258,5.332,1.053,1.433,6.582-4.836,9.36,11.293,1.368-1.134Z" transform="translate(-8.028 -162.132)" fill="#ee542d"/>
    </g>
  </g>
  <g id="Group_228" data-name="Group 228" transform="translate(12.066 6.251)">
    <g id="Group_227" data-name="Group 227" transform="translate(0 0)">
      <path id="Path_111" data-name="Path 111" d="M272.68,182.681a.889.889,0,0,0-1.1,0l-4.207,3.347,1.107,1.391,3.655-2.908,4.838,3.828,1.1-1.394Z" transform="translate(-267.369 -182.489)" fill="#ee542d"/>
    </g>
  </g>
</svg>
