<svg id="Group_142" data-name="Group 142" xmlns="http://www.w3.org/2000/svg" width="33.216" height="19.376" viewBox="0 0 33.216 19.376">
  <g id="business-and-finance" transform="translate(0 0)">
    <path id="Path_7" data-name="Path 7" d="M8.157,19.8A1.158,1.158,0,0,1,7.4,17.761l5.4-4.627a1.159,1.159,0,0,1,1.394-.085l1.524,1.016L20.45,9.339a1.157,1.157,0,0,1,1.637,1.637l-5.4,5.4a1.156,1.156,0,0,1-1.459.145l-1.584-1.057L8.912,19.519a1.174,1.174,0,0,1-.756.278Z" transform="translate(1.896 -4.098)" fill="#707070"/>
    <path id="Path_8" data-name="Path 8" d="M18.013,15.17a1.157,1.157,0,0,1-1.157-1.157v-2.7h-2.7a1.157,1.157,0,0,1,0-2.314h3.856a1.157,1.157,0,0,1,1.157,1.157v3.856A1.157,1.157,0,0,1,18.013,15.17Z" transform="translate(4.58 -3.718)" fill="#707070"/>
    <path id="Path_9" data-name="Path 9" d="M32.178,19.814H1.038a1.164,1.164,0,0,1,0-2.314h31.14a1.164,1.164,0,0,1,0,2.314Z" transform="translate(0 -0.438)" fill="#707070"/>
    <path id="Path_10" data-name="Path 10" d="M28.032,24.376a1.027,1.027,0,0,1-1.014-1.038V7.422a.342.342,0,0,0-.338-.346H4.367a.342.342,0,0,0-.338.346V23.338a1.015,1.015,0,1,1-2.028,0V7.422A2.4,2.4,0,0,1,4.367,5H26.68a2.4,2.4,0,0,1,2.367,2.422V23.338A1.027,1.027,0,0,1,28.032,24.376Z" transform="translate(1.085 -5)" fill="#707070"/>
  </g>
</svg>
