<svg id="share" xmlns="http://www.w3.org/2000/svg" width="17.628" height="19.231" viewBox="0 0 17.628 19.231">
  <path id="Path_118" data-name="Path 118" d="M312.337,6.01a3,3,0,1,1,3-3A3.009,3.009,0,0,1,312.337,6.01Zm0-4.808a1.8,1.8,0,1,0,1.8,1.8A1.805,1.805,0,0,0,312.337,1.2Zm0,0" transform="translate(-297.714)" fill="#ee542d"/>
  <path id="Path_119" data-name="Path 119" d="M312.337,358.01a3,3,0,1,1,3-3A3.009,3.009,0,0,1,312.337,358.01Zm0-4.808a1.8,1.8,0,1,0,1.8,1.8A1.805,1.805,0,0,0,312.337,353.2Zm0,0" transform="translate(-297.714 -338.779)" fill="#ee542d"/>
  <path id="Path_120" data-name="Path 120" d="M3,182.01a3,3,0,1,1,3-3A3.008,3.008,0,0,1,3,182.01ZM3,177.2a1.8,1.8,0,1,0,1.8,1.8A1.805,1.805,0,0,0,3,177.2Zm0,0" transform="translate(0 -169.389)" fill="#ee542d"/>
  <path id="Path_121" data-name="Path 121" d="M120.291,101a.6.6,0,0,1-.3-1.123l7.435-4.239a.6.6,0,0,1,.594,1.044l-7.435,4.239A.6.6,0,0,1,120.291,101Zm0,0" transform="translate(-115.194 -91.969)" fill="#ee542d"/>
  <path id="Path_122" data-name="Path 122" d="M127.746,276.989a.6.6,0,0,1-.3-.079l-7.435-4.239a.6.6,0,0,1,.595-1.044l7.435,4.239a.6.6,0,0,1-.3,1.123Zm0,0" transform="translate(-115.214 -261.348)" fill="#ee542d"/>
</svg>
