<svg id="stopwatch" xmlns="http://www.w3.org/2000/svg" width="13.147" height="15.426" viewBox="0 0 13.147 15.426">
  <path id="Path_77" data-name="Path 77" d="M7.048,2.3V.95h.939a.475.475,0,0,0,0-.95H5.159a.475.475,0,0,0,0,.95H6.1V2.3a6.573,6.573,0,1,0,.95,0Zm-.475,12.18A5.624,5.624,0,1,1,12.2,8.853,5.63,5.63,0,0,1,6.573,14.477Zm0,0" fill="#87a91d"/>
  <path id="Path_78" data-name="Path 78" d="M204.8,179.992l-2.564,2.954a.475.475,0,0,0,.717.623l2.564-2.954A.475.475,0,0,0,204.8,179.992Zm0,0" transform="translate(-196.024 -174.404)" fill="#87a91d"/>
</svg>
